<svg xmlns="http://www.w3.org/2000/svg" version="1.0" width="948.553" height="620"><path d="M205.46 66.008c-2.447.046-4.846.19-7.138.394-17.789 3.624-28.024 20.338-29.377 37.037.84 21.536-7.79 16.26-8.222 36.9-3.337 8.557-5.68 23.622-15.3 28.475-11.798 10.724-32.295-19.351-49.527-16.746-11.132 1.684-20.98 5.657-27.367 19.795-4.686 10.375-2.484 35.982-3.949 44.506-.558 3.247-.494 10.096 2.033 17.074 1.867 5.156 6.172 11.311 6.907 11.33 1.087.029-3.064-9.861-2.993-17.959.062-6.937 4.292-11.823 5.52-16.3 2.27-8.283.74-31.222 12.373-37.12 8.9-4.512 24.448 7.4 28.504 9.15 13.564 5.857 15.013 4.18 16.139 3.987-1.634 1.907-12.426 4.573-16.885 5.873-7.456 2.335-15.495 5.469-20.39 11.557-7.73 9.612-10.822 23.025-10.911 35.36-.031 4.314 1.342 8.768 3.639 12.421 1.534 2.441 4.02 4.2 6.425 5.79 2.824 1.863 6.847 1.845 9.211 4.265 4.396 4.498 6.36 15.592 7.532 17.299 2.249 3.277 1.205-11.915-.86-17.31-1.248-3.261-3.629-6.297-6.595-8.138-8.24-5.11-8.815-7.314-9.833-12.523-1.652-8.46 2.546-17.56 7.141-24.852 2.475-3.928 6.323-7.057 10.416-9.248 5.547-2.968 13.036-4.858 18.256-4.79-9.402 4.688-19.072 20.474-21.008 33.517-1.943 13.092 3.262 27.18 10.408 38.32 2.886 4.499 7.731 7.515 12.31 10.27 9.026 5.428 28.831 13.35 29.25 11.949.494-1.646-17.975-9.605-24.847-16.89-4.909-5.206-9.657-13.899-11.008-18.428-1.84-6.175-4.147-19.905-.912-29.03 2.978-8.398 13.234-20.107 17.483-20.222 3.213-.088 17.807-5.47-.791 13.39-8.94 14.18-8.74 22.7-4.487 33.455 4.374 13.463 23.622 17.285 36.885 13.381 7.758-3.02 16.943-8.01 22.793-14.463 3.378-3.726 5.162-7.298 6.156-12.914 3.852-9.71-16.171-24.639-9.072-11.959 6.294 12.669-10.147 24.256-22.514 27.711-21.897 5.412-23.11-13.106-18.187-22.511 5.826-13.724 10.986-17.173 20.58-26.897 11.437-8.91 22.58-20.16 38.621-19.857v.021c.15-.007.298-.005.447-.01.15.005.299.003.45.01v-.021c16.04-.302 27.184 10.947 38.62 19.857 9.595 9.724 14.752 13.173 20.579 26.897 4.924 9.405 3.71 27.923-18.188 22.511-12.366-3.455-28.808-15.042-22.513-27.71 7.099-12.68-12.924 2.247-9.073 11.958.995 5.616 2.779 9.188 6.157 12.914 5.85 6.454 15.035 11.443 22.793 14.463 13.262 3.904 32.51.082 36.884-13.38 4.255-10.757 4.455-19.277-4.486-33.456-18.599-18.86-4.004-13.478-.79-13.39 4.248.115 14.504 11.824 17.481 20.222 3.235 9.125.93 22.855-.912 29.03-1.35 4.53-6.098 13.222-11.007 18.427-6.872 7.286-25.341 15.245-24.848 16.891.42 1.401 20.225-6.52 29.25-11.95 4.58-2.754 9.425-5.77 12.31-10.269 7.147-11.14 12.352-25.228 10.409-38.32-1.936-13.043-11.605-28.83-21.006-33.518 5.22-.067 12.708 1.823 18.256 4.791 4.093 2.19 7.94 5.32 10.416 9.248 4.595 7.293 8.793 16.392 7.14 24.852-1.017 5.209-1.592 7.413-9.832 12.523-2.967 1.84-5.348 4.877-6.595 8.137-2.065 5.396-3.111 20.588-.862 17.31 1.172-1.706 3.138-12.8 7.533-17.298 2.365-2.42 6.388-2.402 9.211-4.266 2.406-1.588 4.892-3.348 6.426-5.789 2.297-3.653 3.668-8.107 3.637-12.422-.089-12.334-3.179-25.747-10.908-35.36-4.896-6.087-12.935-9.221-20.391-11.556-4.46-1.3-15.253-3.966-16.887-5.873 1.126.192 2.577 1.87 16.14-3.986 4.057-1.751 19.603-13.663 28.503-9.15 11.633 5.897 10.102 28.836 12.373 37.119 1.227 4.477 5.458 9.363 5.52 16.3.07 8.098-4.078 17.988-2.99 17.96.733-.02 5.036-6.175 6.904-11.33 2.527-6.98 2.59-13.828 2.033-17.075-1.466-8.524.737-34.13-3.95-44.506-6.386-14.138-16.235-18.111-27.367-19.795-17.231-2.605-37.726 27.47-49.525 16.746-9.62-4.853-11.962-19.918-15.299-28.474-.433-20.64-9.062-15.365-8.223-36.9-1.352-16.7-11.588-33.414-29.377-37.038-4.408-.394-9.213-.547-13.996-.232a81.414 81.414 0 0 0-6.855-.162z" style="fill:#000;stroke:none;stroke-width:.1" transform="matrix(2.36324 0 0 2.36324 -27.48 -90.594)"/><g transform="translate(644.808 -91.817) scale(.28398)" style="fill:#000;stroke:none"><path d="M-2266.97-1363.513c-152.942-163.93-393.492-144.364-506.232-111.835-100.565 28.998-300.493 216.155-186.122 469.624 107.339 237.877 353.75 4.12 785.982-172.828 0 0 56.872-23.623-93.629-184.96" style="fill:#fff;stroke-width:.62046868" transform="matrix(.3 0 0 -.3 0 688.225)"/></g><g style="fill:#000;stroke:none"><g style="fill:#000"><g style="fill:#000"><path style="fill:#000;stroke:#000;stroke-width:4;stroke-linecap:round;stroke-linejoin:round" d="M310.943 281.748c-47.7-8.67-117.603 23.662-117.603 23.662-46.54-35.25-91.66 0-91.66 0-43.016-50.77-121.055 46.233-121.055 46.233-8.392-156.106 200.028-179.493 200.028-179.493 23.85 54.15 116.07 78.89 131.69 82.73" transform="rotate(42.027 437.673 296.574) scale(1.17878)"/></g><g style="fill:#000;stroke:#fff;stroke-width:4;stroke-linecap:round;stroke-linejoin:round;stroke-opacity:1"><path style="fill:#000;stroke:#fff;stroke-opacity:1" d="M101.93 301.59s-26.795-58.73 76.48-127.26M193.81 302.46s-32-61.56-15-128.05" transform="rotate(42.027 437.673 296.574) scale(1.17878)"/></g></g><g style="fill:#fff;fill-opacity:1;stroke:#000;stroke-width:3;stroke-linecap:round;stroke-linejoin:round;stroke-opacity:1"><path style="fill:#fff;fill-opacity:1;stroke:#000;stroke-width:1.42806268;stroke-opacity:1" d="M-13.595 421.632c-10.468-9.99-11.991-23.77-10.133-26.812 1.86-3.036 5.114-3.899 7.267-1.927 4.938 4.833-7.012 7.313 2.866 28.739z" transform="rotate(42.027 509.784 327.872) scale(1.17878)"/><path d="M109.505 369.438c-9.463-5.136-13.24-14.736-12.498-17.282.745-2.543 2.914-3.796 4.844-2.8 4.487 2.51-3.612 6.618 7.654 20.082zM201.786 367.956c-9.463-5.137-13.24-14.736-12.499-17.283.745-2.543 2.914-3.795 4.845-2.799 4.487 2.51-3.612 6.617 7.654 20.082z" style="fill:#fff;fill-opacity:1;stroke:#000;stroke-width:1.06262517;stroke-opacity:1" transform="rotate(42.027 509.784 327.872) scale(1.17878)"/><path d="M192.699 212.793c-10.485-1.698-16.8 3.831-16.811 6.389-.006 2.557 1.71 4.943 3.835 5.332 4.992.744-1.58-7.7 12.976-11.721z" style="fill:#fff;fill-opacity:1;stroke:#000;stroke-width:1.04196298;stroke-opacity:1" transform="rotate(42.027 509.784 327.872) scale(1.17878)"/></g></g><g style="fill:#000;stroke:none" transform="matrix(-.28398 0 0 .28398 303.745 -91.817)"><path style="fill:#fff;stroke-width:.62046868" d="M-2266.97-1363.513c-152.942-163.93-393.492-144.364-506.232-111.835-100.565 28.998-300.493 216.155-186.122 469.624 107.339 237.877 353.75 4.12 785.982-172.828 0 0 56.872-23.623-93.629-184.96" transform="matrix(.3 0 0 -.3 0 688.225)"/></g><g style="fill:#000;stroke:none"><g style="fill:#000"><g style="fill:#000"><path d="M310.943 281.748c-47.7-8.67-117.603 23.662-117.603 23.662-46.54-35.25-91.66 0-91.66 0-43.016-50.77-121.055 46.233-121.055 46.233-8.392-156.106 200.028-179.493 200.028-179.493 23.85 54.15 116.07 78.89 131.69 82.73" style="fill:#000;stroke:#000;stroke-width:4;stroke-linecap:round;stroke-linejoin:round" transform="matrix(-.87564 .78917 .78917 .87564 637.45 -216.744)"/></g><g style="fill:#000;stroke:#fff;stroke-width:4;stroke-linecap:round;stroke-linejoin:round;stroke-opacity:1"><path d="M101.93 301.59s-26.795-58.73 76.48-127.26M193.81 302.46s-32-61.56-15-128.05" style="fill:#000;stroke:#fff;stroke-opacity:1" transform="matrix(-.87564 .78917 .78917 .87564 637.45 -216.744)"/></g></g><g style="fill:#fff;fill-opacity:1;stroke:#000;stroke-width:3;stroke-linecap:round;stroke-linejoin:round;stroke-opacity:1"><path d="M-13.595 421.632c-10.468-9.99-11.991-23.77-10.133-26.812 1.86-3.036 5.114-3.899 7.267-1.927 4.938 4.833-7.012 7.313 2.866 28.739z" style="fill:#fff;fill-opacity:1;stroke:#000;stroke-width:1.42806268;stroke-opacity:1" transform="matrix(-.87564 .78917 .78917 .87564 597.952 -256.971)"/><path style="fill:#fff;fill-opacity:1;stroke:#000;stroke-width:1.06262517;stroke-opacity:1" d="M109.505 369.438c-9.463-5.136-13.24-14.736-12.498-17.282.745-2.543 2.914-3.796 4.844-2.8 4.487 2.51-3.612 6.618 7.654 20.082zM201.786 367.956c-9.463-5.137-13.24-14.736-12.499-17.283.745-2.543 2.914-3.795 4.845-2.799 4.487 2.51-3.612 6.617 7.654 20.082z" transform="matrix(-.87564 .78917 .78917 .87564 597.952 -256.971)"/><path style="fill:#fff;fill-opacity:1;stroke:#000;stroke-width:1.04196298;stroke-opacity:1" d="M192.699 212.793c-10.485-1.698-16.8 3.831-16.811 6.389-.006 2.557 1.71 4.943 3.835 5.332 4.992.744-1.58-7.7 12.976-11.721z" transform="matrix(-.87564 .78917 .78917 .87564 597.952 -256.971)"/></g></g></svg>